<svg width="573" height="117" viewBox="0 0 573 117" fill="none" xmlns="http://www.w3.org/2000/svg">
<path d="M45.456 15.48L39.12 14.232L44.64 9.528H45.504L48.624 32.232L47.376 32.472L37.968 16.584L41.184 20.568C39.008 18.488 36.64 16.888 34.08 15.768C31.52 14.616 28.88 14.04 26.16 14.04C22.064 14.04 19.072 15 17.184 16.92C15.328 18.84 14.4 21.352 14.4 24.456C14.4 26.6 14.864 28.392 15.792 29.832C16.752 31.272 18.048 32.488 19.68 33.48C21.344 34.472 23.232 35.352 25.344 36.12C27.456 36.856 29.648 37.624 31.92 38.424C34.224 39.224 36.512 40.136 38.784 41.16C41.056 42.184 43.12 43.496 44.976 45.096C46.832 46.664 48.32 48.648 49.44 51.048C50.56 53.416 51.12 56.376 51.12 59.928C51.12 64.344 49.936 68.216 47.568 71.544C45.2 74.872 42.032 77.464 38.064 79.32C34.128 81.176 29.76 82.104 24.96 82.104C21.632 82.104 18.64 81.88 15.984 81.432C13.36 80.984 10.624 80.2 7.776 79.08L3.744 60.312H5.184L17.856 79.992L9.984 74.712C12.736 76.312 15.216 77.544 17.424 78.408C19.632 79.272 21.968 79.704 24.432 79.704C28.272 79.704 31.504 79.128 34.128 77.976C36.752 76.824 38.736 75.192 40.08 73.08C41.424 70.936 42.096 68.376 42.096 65.4C42.096 62.648 41.504 60.376 40.32 58.584C39.168 56.792 37.648 55.32 35.76 54.168C33.872 52.984 31.776 51.96 29.472 51.096C27.2 50.232 24.944 49.384 22.704 48.552C20.432 47.688 18.288 46.776 16.272 45.816C14.256 44.824 12.464 43.656 10.896 42.312C9.36 40.968 8.128 39.336 7.2 37.416C6.304 35.464 5.856 33.128 5.856 30.408C5.856 26.472 6.8 23.08 8.688 20.232C10.608 17.384 13.296 15.176 16.752 13.608C20.208 12.04 24.288 11.256 28.992 11.256C32.096 11.256 34.928 11.592 37.488 12.264C40.08 12.936 42.736 14.008 45.456 15.48ZM80.892 30.792C84.284 30.792 87.036 31.16 89.148 31.896C91.26 32.6 92.796 33.528 93.756 34.68C94.748 35.8 95.244 37 95.244 38.28C95.244 39.336 95.004 40.264 94.524 41.064C94.076 41.832 93.452 42.44 92.652 42.888C91.884 43.304 90.988 43.512 89.964 43.512C89.676 43.512 89.228 43.176 88.62 42.504C88.044 41.832 87.324 41 86.46 40.008C85.628 39.016 84.684 38.024 83.628 37.032C82.604 36.04 81.516 35.208 80.364 34.536C79.212 33.864 78.028 33.528 76.812 33.528C74.732 33.528 72.876 34.152 71.244 35.4C69.644 36.616 68.396 38.552 67.5 41.208C66.604 43.832 66.156 47.256 66.156 51.48C66.156 56.824 66.764 61.16 67.98 64.488C69.228 67.784 71.052 70.184 73.452 71.688C75.884 73.192 78.86 73.944 82.38 73.944C84.972 73.944 87.404 73.448 89.676 72.456C91.948 71.432 93.964 69.832 95.724 67.656L96.588 68.328C94.604 71.72 92.604 74.424 90.588 76.44C88.572 78.456 86.46 79.896 84.252 80.76C82.044 81.624 79.628 82.056 77.004 82.056C72.78 82.056 69.004 81.112 65.676 79.224C62.348 77.304 59.724 74.504 57.804 70.824C55.916 67.144 54.972 62.632 54.972 57.288C54.972 53.448 55.612 49.928 56.892 46.728C58.204 43.496 60.028 40.696 62.364 38.328C64.732 35.928 67.484 34.072 70.62 32.76C73.788 31.448 77.212 30.792 80.892 30.792ZM127.248 79.656L133.488 78.168V47.784C133.488 45.768 133.136 44.104 132.432 42.792C131.76 41.48 130.72 40.504 129.312 39.864C127.936 39.192 126.16 38.856 123.984 38.856C121.744 38.856 119.584 39.16 117.504 39.768C115.456 40.376 113.68 41.048 112.176 41.784L111.648 40.824C114.144 38.712 116.304 37 118.128 35.688C119.952 34.376 121.568 33.384 122.976 32.712C124.416 32.008 125.792 31.528 127.104 31.272C128.448 31.016 129.888 30.888 131.424 30.888C136.032 30.888 139.408 32.136 141.552 34.632C143.696 37.128 144.768 40.984 144.768 46.2V78.168L151.056 79.656V81H127.248V79.656ZM119.712 81H95.904V79.656L102.24 78.168V19.56C101.824 19.336 101.232 19 100.464 18.552C99.728 18.104 98.848 17.592 97.824 17.016C96.8 16.408 95.664 15.72 94.416 14.952V13.944L113.088 9.672H113.52V35.736V78.168L119.712 79.656V81ZM176.205 79.608C178.957 79.608 181.245 78.776 183.069 77.112C184.925 75.448 186.301 72.936 187.197 69.576C188.125 66.184 188.589 61.944 188.589 56.856C188.589 51.672 188.141 47.336 187.245 43.848C186.381 40.328 185.037 37.688 183.213 35.928C181.421 34.136 179.133 33.24 176.349 33.24C173.597 33.24 171.293 34.088 169.437 35.784C167.613 37.448 166.237 39.96 165.309 43.32C164.413 46.68 163.965 50.904 163.965 55.992C163.965 61.176 164.413 65.528 165.309 69.048C166.205 72.536 167.549 75.176 169.341 76.968C171.165 78.728 173.453 79.608 176.205 79.608ZM175.965 82.056C171.421 82.056 167.325 80.968 163.677 78.792C160.029 76.616 157.149 73.608 155.037 69.768C152.925 65.896 151.869 61.448 151.869 56.424C151.869 51.4 152.957 46.968 155.133 43.128C157.341 39.256 160.317 36.232 164.061 34.056C167.805 31.88 171.997 30.792 176.637 30.792C181.277 30.792 185.405 31.88 189.021 34.056C192.637 36.232 195.485 39.24 197.565 43.08C199.677 46.92 200.733 51.368 200.733 56.424C200.733 61.448 199.613 65.896 197.373 69.768C195.133 73.608 192.141 76.616 188.397 78.792C184.653 80.968 180.509 82.056 175.965 82.056ZM219.373 78.168L225.71 79.656V81H201.805V79.656L208.093 78.168V19.272C207.678 19.048 207.086 18.728 206.317 18.312C205.581 17.896 204.701 17.4 203.677 16.824C202.653 16.216 201.517 15.56 200.269 14.856V13.848L218.941 9.672H219.373V18.456V78.168ZM256.831 49.272L257.167 51.432C253.167 52.712 249.935 53.944 247.471 55.128C245.007 56.312 243.119 57.496 241.807 58.68C240.527 59.864 239.647 61.128 239.167 62.472C238.687 63.816 238.447 65.304 238.447 66.936C238.447 69.656 239.151 71.672 240.559 72.984C241.999 74.296 243.775 74.952 245.887 74.952C247.487 74.952 248.879 74.632 250.063 73.992C251.279 73.352 252.223 72.408 252.895 71.16C253.599 69.912 253.951 68.344 253.951 66.456V44.232C253.951 41.16 253.167 38.808 251.599 37.176C250.063 35.544 247.727 34.728 244.591 34.728C243.055 34.728 241.551 34.84 240.079 35.064C238.607 35.256 237.439 35.544 236.575 35.928L238.975 33.72C238.815 35.224 238.623 36.648 238.399 37.992C238.175 39.304 237.919 40.456 237.631 41.448C237.343 42.408 236.991 43.144 236.575 43.656C236.127 44.232 235.439 44.696 234.511 45.048C233.615 45.368 232.671 45.528 231.679 45.528C230.367 45.528 229.343 45.288 228.607 44.808C227.903 44.296 227.551 43.56 227.551 42.6C227.551 41.224 228.207 39.848 229.519 38.472C230.863 37.064 232.607 35.784 234.751 34.632C236.927 33.48 239.295 32.552 241.855 31.848C244.447 31.144 246.959 30.792 249.391 30.792C253.231 30.792 256.303 31.352 258.607 32.472C260.911 33.592 262.575 35.16 263.599 37.176C264.655 39.192 265.183 41.56 265.183 44.28V71.928C265.183 72.92 265.343 73.72 265.663 74.328C265.983 74.904 266.431 75.336 267.007 75.624C267.583 75.88 268.239 76.008 268.975 76.008C269.967 76.008 270.943 75.864 271.903 75.576C272.895 75.256 273.919 74.76 274.975 74.088V75.72C272.575 78.376 270.399 80.104 268.447 80.904C266.527 81.672 264.479 82.056 262.303 82.056C260.255 82.056 258.623 81.624 257.407 80.76C256.191 79.896 255.311 78.616 254.767 76.92C254.255 75.192 253.951 73.096 253.855 70.632L254.143 70.776C253.567 73.048 252.655 75.032 251.407 76.728C250.191 78.424 248.703 79.736 246.943 80.664C245.215 81.56 243.295 82.008 241.183 82.008C237.023 82.008 233.631 80.936 231.007 78.792C228.415 76.616 227.119 73.528 227.119 69.528C227.119 67.448 227.471 65.608 228.175 64.008C228.879 62.408 230.255 60.888 232.303 59.448C234.351 57.976 237.343 56.44 241.279 54.84C245.215 53.208 250.399 51.352 256.831 49.272ZM305.634 30.936C307.17 30.936 308.386 31.384 309.282 32.28C310.178 33.176 310.626 34.392 310.626 35.928C310.626 37.816 310.034 39.368 308.85 40.584C307.666 41.8 306.178 42.408 304.386 42.408C303.49 42.408 302.642 42.312 301.842 42.12C301.042 41.928 300.21 41.736 299.346 41.544C298.514 41.352 297.57 41.256 296.514 41.256C295.586 41.256 294.706 41.4 293.874 41.688C293.074 41.976 292.29 42.392 291.522 42.936C290.786 43.48 290.002 44.136 289.17 44.904V42.744C291.666 40.056 293.762 37.928 295.458 36.36C297.186 34.76 298.642 33.576 299.826 32.808C301.01 32.04 302.05 31.544 302.946 31.32C303.842 31.064 304.738 30.936 305.634 30.936ZM290.082 39.96V78.168L297.378 79.656V81H272.514V79.656L278.802 78.168V41.064C278.386 40.744 277.89 40.392 277.314 40.008C276.77 39.592 276.082 39.08 275.25 38.472C274.45 37.864 273.458 37.112 272.274 36.216V35.208L289.698 30.36H290.082V39.96Z" fill="black"/>
<path d="M335.672 66.264C335.672 68.408 336.328 70.008 337.64 71.064C338.952 72.088 340.904 72.6 343.496 72.6C344.968 72.6 346.52 72.488 348.152 72.264C349.784 72.04 351.704 71.656 353.912 71.112V73.272C350.552 75.64 347.688 77.48 345.32 78.792C342.984 80.104 340.872 81.016 338.984 81.528C337.128 82.04 335.24 82.296 333.32 82.296C330.408 82.296 327.88 81.768 325.736 80.712C323.624 79.656 321.976 78.04 320.792 75.864C319.608 73.688 319.016 70.92 319.016 67.56V41.16L311.576 35.256V34.104C311.928 33.88 312.696 33.448 313.88 32.808C315.064 32.168 316.488 31.384 318.152 30.456C319.848 29.496 321.656 28.488 323.576 27.432C325.528 26.344 327.464 25.256 329.384 24.168C331.336 23.048 333.144 22.024 334.808 21.096H335.672V33.192V66.264ZM329.24 39.288V31.848H352.232L351.224 39.288H329.24ZM377.251 79.08C379.267 79.08 380.883 78.344 382.099 76.872C383.347 75.4 384.243 73.096 384.787 69.96C385.331 66.792 385.603 62.712 385.603 57.72C385.603 52.408 385.331 47.992 384.787 44.472C384.275 40.92 383.395 38.264 382.147 36.504C380.931 34.712 379.267 33.816 377.155 33.816C375.107 33.816 373.475 34.552 372.259 36.024C371.043 37.496 370.163 39.8 369.619 42.936C369.075 46.072 368.803 50.136 368.803 55.128C368.803 60.408 369.059 64.824 369.571 68.376C370.083 71.928 370.947 74.6 372.163 76.392C373.411 78.184 375.107 79.08 377.251 79.08ZM376.627 82.248C371.667 82.248 367.283 81.16 363.475 78.984C359.667 76.808 356.691 73.8 354.547 69.96C352.435 66.088 351.379 61.64 351.379 56.616C351.379 51.464 352.515 46.936 354.787 43.032C357.091 39.128 360.227 36.088 364.195 33.912C368.195 31.704 372.707 30.6 377.731 30.6C382.819 30.6 387.251 31.688 391.027 33.864C394.803 36.008 397.747 39.016 399.859 42.888C401.971 46.728 403.027 51.176 403.027 56.232C403.027 61.384 401.859 65.928 399.523 69.864C397.187 73.768 394.035 76.808 390.067 78.984C386.099 81.16 381.619 82.248 376.627 82.248ZM430.411 79.08C432.427 79.08 434.043 78.344 435.259 76.872C436.507 75.4 437.403 73.096 437.947 69.96C438.491 66.792 438.763 62.712 438.763 57.72C438.763 52.408 438.491 47.992 437.947 44.472C437.435 40.92 436.555 38.264 435.307 36.504C434.091 34.712 432.427 33.816 430.315 33.816C428.267 33.816 426.635 34.552 425.419 36.024C424.203 37.496 423.323 39.8 422.779 42.936C422.235 46.072 421.963 50.136 421.963 55.128C421.963 60.408 422.219 64.824 422.731 68.376C423.243 71.928 424.107 74.6 425.323 76.392C426.571 78.184 428.267 79.08 430.411 79.08ZM429.787 82.248C424.827 82.248 420.443 81.16 416.635 78.984C412.827 76.808 409.851 73.8 407.707 69.96C405.595 66.088 404.539 61.64 404.539 56.616C404.539 51.464 405.675 46.936 407.947 43.032C410.251 39.128 413.387 36.088 417.355 33.912C421.355 31.704 425.867 30.6 430.891 30.6C435.979 30.6 440.411 31.688 444.187 33.864C447.963 36.008 450.907 39.016 453.019 42.888C455.131 46.728 456.187 51.176 456.187 56.232C456.187 61.384 455.019 65.928 452.683 69.864C450.347 73.768 447.195 76.808 443.227 78.984C439.259 81.16 434.779 82.248 429.787 82.248ZM478.627 77.928L483.715 79.512V81H456.787V79.512L461.875 77.928V22.44C461.459 22.088 460.883 21.608 460.147 21C459.411 20.392 458.531 19.672 457.507 18.84C456.483 18.008 455.347 17.08 454.099 16.056V14.712L477.715 9.47999H478.627V19.176V77.928ZM505.544 30.6C508.232 30.6 510.584 30.808 512.6 31.224C514.648 31.608 516.728 32.2 518.84 33L520.808 46.392H519.272L511.4 33.336L515.768 37.56C514.008 35.992 512.328 34.888 510.728 34.248C509.128 33.576 507.416 33.24 505.592 33.24C502.808 33.24 500.696 33.752 499.256 34.776C497.816 35.768 497.096 37.288 497.096 39.336C497.096 40.488 497.368 41.528 497.912 42.456C498.488 43.384 499.624 44.296 501.32 45.192C503.048 46.088 505.672 47.08 509.192 48.168C511.784 48.968 513.96 49.912 515.72 51C517.512 52.088 518.936 53.32 519.992 54.696C521.08 56.072 521.864 57.592 522.344 59.256C522.824 60.92 523.064 62.744 523.064 64.728C523.064 68.152 522.12 71.192 520.232 73.848C518.376 76.472 515.8 78.536 512.504 80.04C509.208 81.512 505.4 82.248 501.08 82.248C497.88 82.248 495.144 82.008 492.872 81.528C490.6 81.048 488.632 80.408 486.968 79.608L484.376 64.2H486.152L495.272 79.656L492.344 76.872C493.208 77.48 494.136 77.992 495.128 78.408C496.152 78.792 497.208 79.096 498.296 79.32C499.384 79.512 500.456 79.608 501.512 79.608C504.296 79.608 506.616 78.92 508.472 77.544C510.328 76.168 511.256 74.088 511.256 71.304C511.256 70.216 511.048 69.224 510.632 68.328C510.248 67.432 509.592 66.6 508.664 65.832C507.768 65.032 506.536 64.28 504.968 63.576C503.4 62.84 501.432 62.136 499.064 61.464C495.896 60.504 493.304 59.368 491.288 58.056C489.304 56.744 487.832 55.16 486.872 53.304C485.944 51.448 485.48 49.304 485.48 46.872C485.48 43.576 486.344 40.712 488.072 38.28C489.8 35.848 492.168 33.96 495.176 32.616C498.216 31.272 501.672 30.6 505.544 30.6Z" fill="#5E5E5E"/>
</svg>
